name C:/MyDriveSym/Projects/mobilecap/Data\Session20210827_0002\mocap\ForceDataProcessed\walkingTS2_forces.mot
datacolumns 19
datarows 22
range 0.74450000 0.75500000
endheader 
time	R_ground_force_vx	R_ground_force_vy	R_ground_force_vz	R_ground_force_px	R_ground_force_py	R_ground_force_pz	R_ground_torque_x	R_ground_torque_y	R_ground_torque_z	L_ground_force_vx	L_ground_force_vy	L_ground_force_vz	L_ground_force_px	L_ground_force_py	L_ground_force_pz	L_ground_torque_x	L_ground_torque_y	L_ground_torque_z	
          0.74450000	         15.35403700	         51.99571300	          7.03547500	          0.39087400	          0.00600000	         -0.14591700	          0.00000000	         -0.30589400	          0.00000000	        -85.71747500	        576.07581200	         21.84356200	          0.87683200	          0.00600000	         -0.24607400	          0.00000000	         -0.64601700	          0.00000000	
          0.74500000	         15.09500200	         50.97889800	          6.97311500	          0.39152600	          0.00600000	         -0.14583300	          0.00000000	         -0.30248400	          0.00000000	        -85.69295700	        576.83875100	         21.87082700	          0.87702800	          0.00600000	         -0.24606000	          0.00000000	         -0.65082100	          0.00000000	
          0.74550000	         14.83804600	         49.97182200	          6.91080500	          0.39219400	          0.00600000	         -0.14574700	          0.00000000	         -0.29917000	          0.00000000	        -85.66680900	        577.59674000	         21.89640700	          0.87722400	          0.00600000	         -0.24604500	          0.00000000	         -0.65556700	          0.00000000	
          0.74600000	         14.58317200	         48.97446600	          6.84855100	          0.39287800	          0.00600000	         -0.14565800	          0.00000000	         -0.29595400	          0.00000000	        -85.63904100	        578.34975500	         21.92031100	          0.87741900	          0.00600000	         -0.24603100	          0.00000000	         -0.66025300	          0.00000000	
          0.74650000	         14.33038500	         47.98680800	          6.78636100	          0.39357900	          0.00600000	         -0.14556600	          0.00000000	         -0.29283700	          0.00000000	        -85.60966300	        579.09777400	         21.94254800	          0.87761400	          0.00600000	         -0.24601600	          0.00000000	         -0.66487700	          0.00000000	
          0.74700000	         14.07968700	         47.00882800	          6.72424300	          0.39429900	          0.00600000	         -0.14547000	          0.00000000	         -0.28982100	          0.00000000	        -85.57868500	        579.84077100	         21.96312600	          0.87780900	          0.00600000	         -0.24600000	          0.00000000	         -0.66943900	          0.00000000	
          0.74750000	         13.83108100	         46.04050200	          6.66220300	          0.39503700	          0.00600000	         -0.14537200	          0.00000000	         -0.28690700	          0.00000000	        -85.54611700	        580.57872400	         21.98205500	          0.87800400	          0.00600000	         -0.24598500	          0.00000000	         -0.67393600	          0.00000000	
          0.74800000	         13.58457100	         45.08180800	          6.60024900	          0.39579400	          0.00600000	         -0.14527000	          0.00000000	         -0.28409700	          0.00000000	        -85.51197100	        581.31160900	         21.99934500	          0.87819800	          0.00600000	         -0.24597000	          0.00000000	         -0.67836700	          0.00000000	
          0.74850000	         13.34015800	         44.13272100	          6.53838800	          0.39657200	          0.00600000	         -0.14516400	          0.00000000	         -0.28139300	          0.00000000	        -85.47625700	        582.03940000	         22.01500500	          0.87839200	          0.00600000	         -0.24595400	          0.00000000	         -0.68273000	          0.00000000	
          0.74900000	         13.09784500	         43.19321500	          6.47662600	          0.39737100	          0.00600000	         -0.14505500	          0.00000000	         -0.27879800	          0.00000000	        -85.43898500	        582.76207400	         22.02904700	          0.87858600	          0.00600000	         -0.24593800	          0.00000000	         -0.68702500	          0.00000000	
          0.74950000	         12.85763200	         42.26326600	          6.41497000	          0.39819300	          0.00600000	         -0.14494200	          0.00000000	         -0.27631300	          0.00000000	        -85.40016600	        583.47960500	         22.04148100	          0.87878000	          0.00600000	         -0.24592200	          0.00000000	         -0.69124900	          0.00000000	
          0.75000000	         12.61952200	         41.34284700	          6.35342800	          0.39903800	          0.00600000	         -0.14482500	          0.00000000	         -0.27394100	          0.00000000	        -85.35981100	        584.19197000	         22.05231800	          0.87897300	          0.00600000	         -0.24590600	          0.00000000	         -0.69540200	          0.00000000	
          0.75050000	         12.38351500	         40.43193000	          6.29200500	          0.39990800	          0.00600000	         -0.14470300	          0.00000000	         -0.27168500	          0.00000000	        -85.31793000	        584.89914200	         22.06156900	          0.87916600	          0.00600000	         -0.24588900	          0.00000000	         -0.69948100	          0.00000000	
          0.75100000	         12.14961200	         39.53048800	          6.23070800	          0.40080300	          0.00600000	         -0.14457700	          0.00000000	         -0.26954700	          0.00000000	        -85.27453500	        585.60109700	         22.06924600	          0.87935900	          0.00600000	         -0.24587200	          0.00000000	         -0.70348700	          0.00000000	
          0.75150000	         11.91781400	         38.63849100	          6.16954400	          0.40172500	          0.00600000	         -0.14444600	          0.00000000	         -0.26752900	          0.00000000	        -85.22963600	        586.29780900	         22.07536100	          0.87955100	          0.00600000	         -0.24585600	          0.00000000	         -0.70741600	          0.00000000	
          0.75200000	         11.68812000	         37.75591100	          6.10851900	          0.40267500	          0.00600000	         -0.14431100	          0.00000000	         -0.26563600	          0.00000000	        -85.18324400	        586.98925200	         22.07992700	          0.87974300	          0.00600000	         -0.24583900	          0.00000000	         -0.71126900	          0.00000000	
          0.75250000	         11.46053000	         36.88271600	          6.04763900	          0.40365500	          0.00600000	         -0.14417000	          0.00000000	         -0.26387100	          0.00000000	        -85.13537000	        587.67540100	         22.08295500	          0.87993500	          0.00600000	         -0.24582200	          0.00000000	         -0.71504200	          0.00000000	
          0.75300000	         11.23504400	         36.01887600	          5.98691100	          0.40466600	          0.00600000	         -0.14402300	          0.00000000	         -0.26223600	          0.00000000	        -85.08602500	        588.35623100	         22.08445900	          0.88012700	          0.00600000	         -0.24580400	          0.00000000	         -0.71873600	          0.00000000	
          0.75350000	         11.01166000	         35.16435800	          5.92634000	          0.40571000	          0.00600000	         -0.14387100	          0.00000000	         -0.26073600	          0.00000000	        -85.03522100	        589.03171400	         22.08445200	          0.88031800	          0.00600000	         -0.24578700	          0.00000000	         -0.72234900	          0.00000000	
          0.75400000	         10.79037800	         34.31913200	          5.86593400	          0.40678800	          0.00600000	         -0.14371300	          0.00000000	         -0.25937600	          0.00000000	        -84.98296800	        589.70182700	         22.08294800	          0.88051000	          0.00600000	         -0.24576900	          0.00000000	         -0.72588000	          0.00000000	
          0.75450000	         10.57119500	         33.48316200	          5.80569600	          0.40790300	          0.00600000	         -0.14354900	          0.00000000	         -0.25815800	          0.00000000	        -84.92927800	        590.36654100	         22.07995900	          0.88070100	          0.00600000	         -0.24575200	          0.00000000	         -0.72932700	          0.00000000	
          0.75500000	         10.35410900	         32.65641700	          5.74563500	          0.40905600	          0.00600000	         -0.14337700	          0.00000000	         -0.25708900	          0.00000000	        -84.87416200	        591.02583300	         22.07550100	          0.88089100	          0.00600000	         -0.24573400	          0.00000000	         -0.73269000	          0.00000000	
